<svg width="15504" height="15304" viewBox="0 0 15504 15304" fill="none" xmlns="http://www.w3.org/2000/svg">
<g id="Group 1">
<g id="ball2">
<ellipse id="Shape" cx="7752" cy="7682" rx="5736" ry="5632" fill="#FF0D0D"/>
</g>
<g id="losangle4">
<path id="Shape_2" d="M5454.09 7677.61C5456.64 7679.98 5456.64 7684.02 5454.09 7686.39L4516.09 8560.39C4513.79 8562.54 4510.21 8562.54 4507.91 8560.39L3569.91 7686.39C3567.36 7684.02 3567.36 7679.98 3569.91 7677.61L4507.91 6803.61C4510.21 6801.46 4513.79 6801.46 4516.09 6803.61L5454.09 7677.61Z" fill="#FFC943"/>
</g>
<g id="losangle3">
<path id="Shape_3" d="M7756.39 5536.09C7754.02 5538.64 7749.98 5538.64 7747.61 5536.09L6873.61 4598.09C6871.46 4595.79 6871.46 4592.21 6873.61 4589.91L7747.61 3651.91C7749.98 3649.36 7754.02 3649.36 7756.39 3651.91L8630.39 4589.91C8632.54 4592.21 8632.54 4595.79 8630.39 4598.09L7756.39 5536.09Z" fill="#FFC943"/>
</g>
<g id="losangle2">
<path id="Shape_4" d="M10049.9 7686.39C10047.4 7684.02 10047.4 7679.98 10049.9 7677.61L10987.9 6803.61C10990.2 6801.46 10993.8 6801.46 10996.1 6803.61L11934.1 7677.61C11936.6 7679.98 11936.6 7684.02 11934.1 7686.39L10996.1 8560.39C10993.8 8562.54 10990.2 8562.54 10987.9 8560.39L10049.9 7686.39Z" fill="#FFC943"/>
</g>
<g id="losangle1">
<path id="Shape_5" d="M7595.61 9827.91C7597.98 9825.36 7602.02 9825.36 7604.39 9827.91L8478.39 10765.9C8480.54 10768.2 8480.54 10771.8 8478.39 10774.1L7604.39 11712.1C7602.02 11714.6 7597.98 11714.6 7595.61 11712.1L6721.61 10774.1C6719.46 10771.8 6719.46 10768.2 6721.61 10765.9L7595.61 9827.91Z" fill="#FFC943"/>
</g>
<g id="ball1">
<ellipse id="Shape_6" cx="7752" cy="7682" rx="2296" ry="2144" fill="#F24822"/>
</g>
<g id="triangle12">
<path id="Shape_7" d="M6131.78 9290.37L6217.34 10588.1C6217.64 10592.8 6223.05 10595.4 6226.87 10592.6L7276 9823.93C7279.67 9821.23 7279.12 9815.58 7274.98 9813.65L6140.3 9284.54C6136.17 9282.61 6131.48 9285.82 6131.78 9290.37Z" fill="#FF9E42"/>
</g>
<g id="triangle11">
<path id="Shape_8" d="M9407.1 9211.45L10707.4 9239.33C10712.1 9239.43 10715.1 9234.26 10712.6 9230.22L10038.4 8118.09C10036 8114.19 10030.3 8114.25 10028 8118.2L9402.03 9202.45C9399.75 9206.4 9402.54 9211.35 9407.1 9211.45Z" fill="#FF9E42"/>
</g>
<g id="triangle10">
<path id="Shape_9" d="M9297.65 6051.89L9212.09 4754.14C9211.78 4749.41 9206.38 4746.89 9202.56 4749.69L8153.43 5518.33C8149.75 5521.03 8150.31 5526.68 8154.44 5528.61L9289.13 6057.72C9293.26 6059.64 9297.95 6056.44 9297.65 6051.89Z" fill="#FF9E42"/>
</g>
<g id="triangle9">
<path id="Shape_10" d="M6021.59 6130.36L4721.33 6102.49C4716.59 6102.38 4713.61 6107.55 4716.07 6111.6L5390.34 7223.72C5392.71 7227.62 5398.38 7227.56 5400.67 7223.61L6026.66 6139.36C6028.94 6135.41 6026.15 6130.46 6021.59 6130.36Z" fill="#FF9E42"/>
</g>
<g id="triangle8">
<path id="Shape_11" d="M5436.33 7926.43L4667.69 8975.56C4664.89 8979.38 4667.41 8984.78 4672.14 8985.09L5969.89 9070.65C5974.44 9070.95 5977.64 9066.26 5975.72 9062.13L5446.61 7927.45C5444.68 7923.31 5439.03 7922.75 5436.33 7926.43Z" fill="#FF9E42"/>
</g>
<g id="triangle7">
<path id="Shape_12" d="M7987.74 9785.38L8965.88 10642.5C8969.45 10645.7 8975.05 10643.6 8975.77 10638.9L9174.11 9353.58C9174.8 9349.07 9170.41 9345.47 9166.13 9347.03L7989.65 9775.23C7985.36 9776.79 7984.31 9782.37 7987.74 9785.38Z" fill="#FF9E42"/>
</g>
<g id="triangle6">
<path id="Shape_13" d="M9993.1 7415.82L10761.7 6366.7C10764.5 6362.88 10762 6357.47 10757.3 6357.16L9459.54 6271.61C9454.99 6271.31 9451.79 6275.99 9453.71 6280.13L9982.82 7414.81C9984.75 7418.95 9990.4 7419.5 9993.1 7415.82Z" fill="#FF9E42"/>
</g>
<g id="triangle5">
<path id="Shape_14" d="M7440.95 5556.43L6462.81 4699.28C6459.25 4696.16 6453.64 4698.2 6452.92 4702.88L6254.58 5988.23C6253.89 5992.74 6258.28 5996.34 6262.57 5994.78L7439.05 5566.58C7443.33 5565.02 7444.38 5559.44 7440.95 5556.43Z" fill="#FF9E42"/>
</g>
<g id="triangle4">
<path id="Shape_15" d="M5628.16 8568.28L5157.25 9780.6C5155.53 9785.01 5159.36 9789.58 5164.01 9788.66L6439.68 9535.42C6444.15 9534.53 6446.04 9529.17 6443.1 9525.68L5638.34 8566.6C5635.41 8563.11 5629.81 8564.03 5628.16 8568.28Z" fill="#FF9E42"/>
</g>
<g id="triangle3">
<path id="Shape_16" d="M8643.87 9650.22L9810.53 10225C9814.78 10227.1 9819.66 10223.7 9819.15 10219L9678.05 8926.08C9677.56 8921.55 9672.38 8919.2 9668.65 8921.82L8643.08 9639.93C8639.35 9642.54 8639.78 9648.21 8643.87 9650.22Z" fill="#FF9E42"/>
</g>
<g id="triangle2">
<path id="Shape_17" d="M9801.27 6773.97L10272.2 5561.66C10273.9 5557.24 10270.1 5552.67 10265.4 5553.6L8989.75 5806.84C8985.28 5807.73 8983.39 5813.08 8986.33 5816.58L9791.09 6775.65C9794.02 6779.15 9799.62 6778.22 9801.27 6773.97Z" fill="#FF9E42"/>
</g>
<g id="triangle1">
<path id="Shape_18" d="M6784.82 5691.59L5618.16 5116.81C5613.92 5114.71 5609.03 5118.14 5609.55 5122.84L5750.64 6415.73C5751.14 6420.27 5756.31 6422.61 5760.05 6419.99L6785.61 5701.88C6789.35 5699.27 6788.91 5693.61 6784.82 5691.59Z" fill="#FF9E42"/>
</g>
<g id="petal24">
<path id="Shape_19" d="M43.968 7843.38L0.0326385 7426.62C-0.334685 7423.08 2.44191 7420 6.00059 7420H2666.15C2669.2 7420 2671.76 7422.29 2672.11 7425.32L2719.96 7843.32C2720.01 7843.77 2720.01 7844.23 2719.96 7844.68L2672.11 8262.68C2671.76 8265.71 2669.2 8268 2666.15 8268H6.00059C2.44191 8268 -0.334685 8264.92 0.0326385 8261.38L43.968 7844.62C44.0107 7844.21 44.0107 7843.79 43.968 7843.38Z" fill="#FF0307"/>
</g>
<g id="petal23">
<path id="Shape_20" d="M204.121 9857.1L20.2946 9480.5C18.7388 9477.3 20.2946 9473.46 23.6387 9472.24L2523.36 8562.42C2526.22 8561.38 2529.42 8562.65 2530.78 8565.38L2718.71 8941.8C2718.91 8942.21 2719.07 8942.64 2719.18 8943.08L2817.17 9352.24C2817.89 9355.21 2816.26 9358.24 2813.39 9359.28L313.672 10269.1C310.328 10270.3 306.665 10268.4 305.8 10264.9L204.545 9858.27C204.444 9857.87 204.302 9857.48 204.121 9857.1Z" fill="#FF0307"/>
</g>
<g id="petal22">
<path id="Shape_21" d="M6226.63 523.049L6617.82 372.745C6621.15 371.474 6624.84 373.359 6625.76 376.796L7314.26 2946.3C7315.05 2949.25 7313.5 2952.32 7310.66 2953.43L6919.29 3107.84C6918.87 3108.01 6918.43 3108.13 6917.97 3108.2L6501.83 3170.16C6498.82 3170.61 6495.94 3168.72 6495.15 3165.78L5806.66 596.275C5805.74 592.837 5807.99 589.358 5811.51 588.797L6225.44 523.369C6225.85 523.304 6226.25 523.197 6226.63 523.049Z" fill="#FF0307"/>
</g>
<g id="petal21">
<path id="Shape_22" d="M15319.1 5983.8L15434.7 6386.6C15435.7 6390.03 15433.5 6393.54 15430 6394.16L12810.3 6856.09C12807.3 6856.62 12804.4 6854.81 12803.5 6851.89L12683.8 6448.55C12683.7 6448.11 12683.6 6447.66 12683.5 6447.2L12658.1 6027.24C12657.9 6024.2 12660 6021.5 12663 6020.97L15282.8 5559.04C15286.3 5558.42 15289.5 5560.97 15289.8 5564.52L15318.9 5982.58C15318.9 5983 15319 5983.41 15319.1 5983.8Z" fill="#FF0307"/>
</g>
<g id="petal20">
<path id="Shape_23" d="M9855.1 15017.9L9478.5 15201.7C9475.3 15203.3 9471.46 15201.7 9470.24 15198.4L8560.42 12698.6C8559.38 12695.8 8560.65 12692.6 8563.38 12691.2L8939.8 12503.3C8940.21 12503.1 8940.64 12502.9 8941.08 12502.8L9350.24 12404.8C9353.21 12404.1 9356.24 12405.7 9357.28 12408.6L10267.1 14908.3C10268.3 14911.7 10266.4 14915.3 10262.9 14916.2L9856.27 15017.5C9855.87 15017.6 9855.48 15017.7 9855.1 15017.9Z" fill="#FF0307"/>
</g>
<g id="petal19">
<path id="Shape_24" d="M1113.34 11640.5L866.905 11301.5C864.817 11298.6 865.682 11294.6 868.764 11292.8L3172.52 9962.73C3175.16 9961.2 3178.52 9961.9 3180.34 9964.35L3430.78 10302.4C3431.05 10302.8 3431.28 10303.2 3431.46 10303.6L3599.02 10689.5C3600.24 10692.3 3599.16 10695.6 3596.52 10697.1L1292.76 12027.2C1289.68 12029 1285.74 12027.7 1284.29 12024.4L1113.95 11641.5C1113.79 11641.2 1113.58 11640.8 1113.34 11640.5Z" fill="#FF0307"/>
</g>
<g id="petal18">
<path id="Shape_25" d="M4370.81 1273.37L4729.95 1057.42C4733.01 1055.59 4736.97 1056.81 4738.47 1060.03L5862.7 3470.94C5863.99 3473.71 5863 3477 5860.4 3478.59L5501.79 3698.62C5501.4 3698.86 5500.98 3699.05 5500.55 3699.19L5101.49 3832.48C5098.6 3833.45 5095.44 3832.09 5094.15 3829.32L3969.93 1418.41C3968.42 1415.19 3970.04 1411.37 3973.4 1410.21L4369.68 1273.9C4370.08 1273.76 4370.45 1273.58 4370.81 1273.37Z" fill="#FF0307"/>
</g>
<g id="petal17">
<path id="Shape_26" d="M14704.9 4064.05L14888.7 4440.65C14890.3 4443.85 14888.7 4447.69 14885.4 4448.91L12385.6 5358.74C12382.8 5359.78 12379.6 5358.51 12378.2 5355.78L12190.3 4979.35C12190.1 4978.94 12189.9 4978.51 12189.8 4978.07L12091.8 4568.91C12091.1 4565.95 12092.7 4562.92 12095.6 4561.88L14595.3 3652.05C14598.7 3650.84 14602.3 3652.78 14603.2 3656.23L14704.5 4062.89C14704.6 4063.29 14704.7 4063.68 14704.9 4064.05Z" fill="#FF0307"/>
</g>
<g id="petal16">
<path id="Shape_27" d="M11485.5 14491.6L11146.5 14738C11143.6 14740.1 11139.6 14739.2 11137.8 14736.2L9807.73 12432.4C9806.2 12429.8 9806.9 12426.4 9809.35 12424.6L10147.4 12174.1C10147.8 12173.9 10148.2 12173.6 10148.6 12173.5L10534.5 12005.9C10537.3 12004.7 10540.6 12005.8 10542.1 12008.4L11872.2 14312.2C11874 14315.2 11872.7 14319.2 11869.4 14320.6L11486.5 14491C11486.2 14491.1 11485.8 14491.4 11485.5 14491.6Z" fill="#FF0307"/>
</g>
<g id="petal15">
<path id="Shape_28" d="M2346.47 13155.6L2020.7 12892C2017.94 12889.7 2017.73 12885.6 2020.24 12883.1L3901.25 11002.1C3903.41 10999.9 3906.84 10999.7 3909.23 11001.6L4238.63 11263.4C4238.99 11263.6 4239.31 11264 4239.6 11264.3L4501.33 11593.7C4503.23 11596.1 4503.03 11599.5 4500.88 11601.7L2619.87 13482.7C2617.35 13485.2 2613.21 13485 2610.97 13482.3L2347.34 13156.5C2347.08 13156.2 2346.79 13155.9 2346.47 13155.6Z" fill="#FF0307"/>
</g>
<g id="petal14">
<path id="Shape_29" d="M2753.96 2369.76L3044.97 2068.21C3047.45 2065.65 3051.59 2065.8 3053.88 2068.53L4763.79 4106.32C4765.75 4108.65 4765.65 4112.09 4763.55 4114.3L4474.1 4419.65C4473.79 4419.98 4473.44 4420.27 4473.06 4420.52L4122.09 4652.55C4119.55 4654.23 4116.14 4653.74 4114.18 4651.4L2404.27 2613.61C2401.99 2610.89 2402.56 2606.78 2405.51 2604.79L2753.01 2370.55C2753.35 2370.32 2753.67 2370.05 2753.96 2369.76Z" fill="#FF0307"/>
</g>
<g id="petal13">
<path id="Shape_30" d="M13046.6 2437.05L13321.7 2753.24C13324 2755.93 13323.5 2760.04 13320.6 2762.08L11141.5 4287.88C11139 4289.63 11135.6 4289.23 11133.6 4286.94L10854.6 3971.98C10854.3 3971.64 10854.1 3971.27 10853.8 3970.87L10653.3 3601.01C10651.8 3598.33 10652.6 3594.99 10655.1 3593.24L12834.2 2067.44C12837.1 2065.4 12841.1 2066.33 12842.9 2069.44L13045.9 2436.03C13046.1 2436.39 13046.4 2436.73 13046.6 2437.05Z" fill="#FF0307"/>
</g>
<g id="petal12">
<path id="Shape_31" d="M13000.6 13258.5L12737 13584.2C12734.7 13587 12730.6 13587.2 12728.1 13584.7L10847.1 11703.7C10844.9 11701.5 10844.7 11698.1 10846.6 11695.7L11108.4 11366.3C11108.6 11365.9 11109 11365.6 11109.3 11365.3L11438.7 11103.6C11441.1 11101.7 11444.5 11101.9 11446.7 11104.1L13327.7 12985.1C13330.2 12987.6 13330 12991.7 13327.3 12994L13001.5 13257.6C13001.2 13257.9 13000.9 13258.1 13000.6 13258.5Z" fill="#FF0307"/>
</g>
<g id="petal11">
<path id="Shape_32" d="M3961.13 14369.2L3594.53 14166.1C3591.42 14164.4 3590.49 14160.3 3592.54 14157.4L5118.33 11978.3C5120.08 11975.9 5123.43 11975.1 5126.11 11976.5L5495.96 12177.1C5496.36 12177.3 5496.74 12177.6 5497.08 12177.9L5812.04 12456.8C5814.32 12458.8 5814.72 12462.2 5812.97 12464.7L4287.18 14643.8C4285.14 14646.7 4281.02 14647.2 4278.33 14644.9L3962.14 14369.9C3961.83 14369.6 3961.49 14369.4 3961.13 14369.2Z" fill="#FF0307"/>
</g>
<g id="petal10">
<path id="Shape_33" d="M1404.31 3872.51L1638.54 3525.01C1640.54 3522.06 1644.64 3521.48 1647.37 3523.77L3685.16 5233.68C3687.5 5235.64 3687.99 5239.04 3686.31 5241.59L3454.28 5592.55C3454.03 5592.93 3453.73 5593.28 3453.4 5593.6L3148.06 5883.04C3145.85 5885.14 3142.41 5885.25 3140.08 5883.29L1102.29 4173.38C1099.56 4171.09 1099.41 4166.95 1101.97 4164.47L1403.51 3873.45C1403.81 3873.17 1404.08 3872.85 1404.31 3872.51Z" fill="#FF0307"/>
</g>
<g id="petal9">
<path id="Shape_34" d="M11333.7 1085.57L11700.3 1288.62C11703.4 1290.35 11704.4 1294.39 11702.3 1297.31L10176.5 3476.37C10174.8 3478.87 10171.4 3479.66 10168.8 3478.21L9798.9 3277.65C9798.5 3277.43 9798.13 3277.17 9797.78 3276.87L9482.83 2997.91C9480.54 2995.89 9480.14 2992.48 9481.89 2989.98L11007.7 810.916C11009.7 808.001 11013.8 807.492 11016.5 809.824L11332.7 1084.86C11333 1085.13 11333.4 1085.37 11333.7 1085.57Z" fill="#FF0307"/>
</g>
<g id="petal8">
<path id="Shape_35" d="M14214.2 11643.8L14011.1 12010.4C14009.4 12013.5 14005.3 12014.4 14002.4 12012.4L11823.3 10486.6C11820.9 10484.8 11820.1 10481.5 11821.5 10478.8L12022.1 10109C12022.3 10108.6 12022.6 10108.2 12022.9 10107.9L12301.8 9792.89C12303.8 9790.61 12307.2 9790.21 12309.7 9791.96L14488.8 11317.8C14491.7 11319.8 14492.2 11323.9 14489.9 11326.6L14214.9 11642.8C14214.6 11643.1 14214.4 11643.4 14214.2 11643.8Z" fill="#FF0307"/>
</g>
<g id="petal7">
<path id="Shape_36" d="M5976.17 15151.3L5562.24 15085.8C5558.73 15085.3 5556.47 15081.8 5557.39 15078.4L6245.89 12508.9C6246.68 12505.9 6249.55 12504 6252.57 12504.5L6668.71 12566.4C6669.16 12566.5 6669.6 12566.6 6670.03 12566.8L7061.4 12721.2C7064.24 12722.3 7065.78 12725.4 7064.99 12728.3L6376.5 15297.8C6375.57 15301.3 6371.88 15303.2 6368.56 15301.9L5977.37 15151.6C5976.98 15151.4 5976.58 15151.3 5976.17 15151.3Z" fill="#FF0307"/>
</g>
<g id="petal1">
<path id="Shape_37" d="M449.545 5811.72L550.8 5405.06C551.665 5401.61 555.328 5399.67 558.672 5400.88L3058.39 6310.71C3061.26 6311.75 3062.89 6314.78 3062.17 6317.74L2964.18 6726.9C2964.07 6727.35 2963.91 6727.78 2963.71 6728.18L2775.78 7104.61C2774.42 7107.34 2771.22 7108.61 2768.36 7107.57L268.639 6197.74C265.295 6196.53 263.739 6192.68 265.295 6189.48L449.121 5812.88C449.302 5812.51 449.444 5812.12 449.545 5811.72Z" fill="#FF0307"/>
</g>
<g id="petal2">
<path id="Shape_38" d="M9734.76 152.369L10148.7 217.797C10152.2 218.358 10154.5 221.837 10153.5 225.275L9465.04 2794.78C9464.25 2797.72 9461.38 2799.61 9458.36 2799.16L9042.22 2737.2C9041.77 2737.13 9041.33 2737.01 9040.9 2736.84L8649.53 2582.43C8646.69 2581.32 8645.15 2578.25 8645.94 2575.3L9334.43 5.79609C9335.36 2.35868 9339.05 0.473758 9342.37 1.7447L9733.56 152.049C9733.95 152.197 9734.35 152.304 9734.76 152.369Z" fill="#FF0307"/>
</g>
<g id="petal3">
<path id="Shape_39" d="M14996.3 9628.76L14930.8 10042.7C14930.3 10046.2 14926.8 10048.5 14923.4 10047.5L12353.9 9359.04C12350.9 9358.25 12349 9355.38 12349.5 9352.36L12411.4 8936.22C12411.5 8935.77 12411.6 8935.33 12411.8 8934.9L12566.2 8543.53C12567.3 8540.69 12570.4 8539.15 12573.3 8539.94L15142.8 9228.43C15146.3 9229.36 15148.2 9233.05 15146.9 9236.37L14996.6 9627.56C14996.4 9627.95 14996.3 9628.35 14996.3 9628.76Z" fill="#FF0307"/>
</g>
<g id="petal4">
<path id="Shape_40" d="M7752.62 170.968L8169.38 127.033C8172.92 126.665 8176 129.442 8176 133.001L8176 2793.15C8176 2796.2 8173.71 2798.76 8170.68 2799.11L7752.68 2846.96C7752.23 2847.01 7751.77 2847.01 7751.32 2846.96L7333.32 2799.11C7330.29 2798.76 7328 2796.2 7328 2793.15L7328 133.001C7328 129.442 7331.08 126.665 7334.62 127.033L7751.38 170.968C7751.79 171.011 7752.21 171.011 7752.62 170.968Z" fill="#FF0307"/>
</g>
<g id="petal6">
<path id="Shape_41" d="M15460 7653.62L15504 8070.38C15504.3 8073.92 15501.6 8077 15498 8077L12837.9 8077C12834.8 8077 12832.2 8074.71 12831.9 8071.68L12784 7653.68C12784 7653.23 12784 7652.77 12784 7652.32L12831.9 7234.32C12832.2 7231.29 12834.8 7229 12837.9 7229L15498 7229C15501.6 7229 15504.3 7232.08 15504 7235.62L15460 7652.38C15460 7652.79 15460 7653.21 15460 7653.62Z" fill="#FF0307"/>
</g>
<g id="petal5">
<path id="Shape_42" d="M7809.85 15193L7451.72 15237C7448.14 15237.4 7445 15234.6 7445 15231L7445 12570.8C7445 12567.7 7447.23 12565.2 7450.21 12564.8L7809.77 12517.1C7810.3 12517 7810.83 12517 7811.35 12517.1L8170.92 12564.8C8173.9 12565.2 8176.13 12567.7 8176.13 12570.8L8176.13 15231C8176.13 15234.6 8172.98 15237.4 8169.41 15237L7811.28 15193C7810.8 15193 7810.32 15193 7809.85 15193Z" fill="#FF0307"/>
</g>
</g>
</svg>
